<svg xmlns="http://www.w3.org/2000/svg" viewBox="0 0 161.51 483.21"><defs><style>.cls-1{fill:#b2b2b2;stroke:#1d1d1b;stroke-miterlimit:10;}.cls-2{font-size:17px;fill:#1d1d1b;font-family:ArchivoBlack-Regular, Archivo Black;}</style></defs><g id="Calque_2" data-name="Calque 2"><g id="Calque_7" data-name="Calque 7"><path id="PATH" class="cls-1" d="M-126.6,161.35H294.24A27.62,27.62,0,0,1,321.86,189V294.24a27.62,27.62,0,0,1-27.62,27.62H-127a33.32,33.32,0,0,1-33.32-33.32V195.1A33.75,33.75,0,0,1-126.6,161.35Z" transform="translate(-160.85 322.36) rotate(-90)"/></g><g id="Calque_8" data-name="Calque 8"><rect id="a" class="cls-1" x="-7.3" y="129.65" width="82.55" height="66.96" transform="translate(-129.15 197.11) rotate(-90)"/><text class="cls-2" transform="translate(18.14 170.59)">101</text></g><g id="Calque_16" data-name="Calque 16"><path id="a-2" data-name="a" class="cls-1" d="M-26.27,27.7H66.84A27.81,27.81,0,0,1,94.66,55.51V94.66a0,0,0,0,1,0,0H-26.7a0,0,0,0,1,0,0V28.13A.43.43,0,0,1-26.27,27.7Z" transform="translate(-27.2 95.16) rotate(-90)"/><text class="cls-2" transform="translate(16.36 74.11)">101</text></g><g id="Calque_15" data-name="Calque 15"><path id="a-3" data-name="a" class="cls-1" d="M66.85,27.7H188.21a0,0,0,0,1,0,0V66.84A27.81,27.81,0,0,1,160.4,94.66H67.29a.43.43,0,0,1-.43-.43V27.7a0,0,0,0,1,0,0Z" transform="matrix(0, -1, 1, 0, 66.35, 188.71)"/><text class="cls-2" transform="translate(115.79 73.9)">101</text></g><g id="Calque_9" data-name="Calque 9"><rect id="a-4" data-name="a" class="cls-1" x="-0.42" y="258.82" width="68.79" height="66.96" transform="translate(-258.32 326.28) rotate(-90)"/><text class="cls-2" transform="translate(20.89 298.27)">101</text></g><g id="Calque_10" data-name="Calque 10"><rect id="a-5" data-name="a" class="cls-1" x="7.23" y="197.68" width="53.5" height="66.96" transform="translate(-197.18 265.13) rotate(-90)"/><text class="cls-2" transform="translate(19.11 238.03)">101</text></g><g id="Calque_11" data-name="Calque 11"><rect id="a-6" data-name="a" class="cls-1" x="93.14" y="259.28" width="68.79" height="66.96" transform="translate(-165.23 420.29) rotate(-90)"/><text class="cls-2" transform="translate(115.79 298.27)">101</text></g><g id="Calque_12" data-name="Calque 12"><rect id="a-7" data-name="a" class="cls-1" x="100.78" y="198.14" width="53.5" height="66.96" transform="translate(-104.08 359.15) rotate(-90)"/><text class="cls-2" transform="translate(114 231.61)">101</text></g><g id="Calque_13" data-name="Calque 13"><rect id="a-8" data-name="a" class="cls-1" x="86.26" y="129.65" width="82.55" height="66.96" transform="translate(-35.6 290.66) rotate(-90)"/><text class="cls-2" transform="translate(112.31 170.79)">101</text></g></g></svg>