<svg width="414" height="125" viewBox="0 0 414 125" fill="none" xmlns="http://www.w3.org/2000/svg">
<path d="M0 0H414V100C414 113.807 402.807 125 389 125H25C11.1929 125 0 113.807 0 100V0Z" fill="#2662D7"/>
<mask id="mask0_1_8" style="mask-type:alpha" maskUnits="userSpaceOnUse" x="0" y="0" width="414" height="125">
<path d="M0 0H414V100C414 113.807 402.807 125 389 125H25C11.1929 125 0 113.807 0 100V0Z" fill="#2662D7"/>
</mask>
<g mask="url(#mask0_1_8)">
<path d="M255.5 220C202.757 220 160 168.289 160 104.5C160 40.7111 202.757 -11 255.5 -11C308.243 -11 351 40.7111 351 104.5C351 168.289 308.243 220 255.5 220Z" fill="#1966FF"/>
<circle cx="402.5" cy="67.5" r="115.5" fill="#164BB2"/>
<ellipse cx="297.5" cy="-47.5" rx="115.5" ry="90.5" fill="#5A91FE"/>
</g>
</svg>
