<svg xmlns="http://www.w3.org/2000/svg" viewBox="0 0 161.61 483.21">
<defs><style>.cls-1,.cls-10,.cls-11,.cls-12,.cls-13,.cls-2,.cls-3,.cls-35,.cls-36,.cls-37,.cls-38,.cls-39,.cls-4,.cls-40,.cls-41,.cls-42,.cls-43,.cls-44,.cls-5,.cls-6,.cls-7,.cls-8,.cls-9{fill:#b2b2b2;}.cls-1,.cls-10,.cls-11,.cls-12,.cls-13,.cls-15,.cls-2,.cls-3,.cls-35,.cls-36,.cls-37,.cls-38,.cls-39,.cls-4,.cls-40,.cls-41,.cls-42,.cls-43,.cls-44,.cls-5,.cls-6,.cls-7,.cls-8,.cls-9{stroke:#1d1d1b;stroke-miterlimit:10;}.cls-2{stroke-width:0.48px;}.cls-3{stroke-width:0.48px;}.cls-4{stroke-width:0.71px;}.cls-5{stroke-width:0.5px;}.cls-6{stroke-width:0.71px;}.cls-7{stroke-width:0.5px;}.cls-8{stroke-width:0.5px;}.cls-9{stroke-width:0.71px;}.cls-10{stroke-width:0.51px;}.cls-11{stroke-width:0.51px;}.cls-12{stroke-width:0.51px;}.cls-13{stroke-width:0.71px;}.cls-14{font-size:10px;}.cls-14,.cls-16,.cls-17,.cls-26,.cls-45{fill:#1d1d1b;}.cls-15{fill:#9d9d9c;}.cls-16{font-size:13px;}.cls-17{font-size:9px;}.cls-18{letter-spacing:0.02em;}.cls-19{letter-spacing:0.05em;}.cls-20{letter-spacing:0.05em;}.cls-21{letter-spacing:0em;}.cls-22{letter-spacing:0.02em;}.cls-23{letter-spacing:0em;}.cls-24{letter-spacing:0.02em;}.cls-25{letter-spacing:0em;}.cls-26{font-size:11px;}.cls-27{letter-spacing:0.02em;}.cls-28{letter-spacing:0em;}.cls-29{letter-spacing:-0.07em;}.cls-30{letter-spacing:0.05em;}.cls-31{letter-spacing:0em;}.cls-32{letter-spacing:0.02em;}.cls-33{letter-spacing:0.02em;}.cls-34{letter-spacing:0.04em;}.cls-35{stroke-width:0.57px;}.cls-36{stroke-width:0.56px;}.cls-37{stroke-width:0.56px;}.cls-38{stroke-width:0.56px;}.cls-39{stroke-width:0.56px;}.cls-40{stroke-width:0.56px;}.cls-41{stroke-width:0.56px;}.cls-42{stroke-width:0.56px;}.cls-43{stroke-width:0.56px;}.cls-44{stroke-width:0.56px;}.cls-45{font-size:12px;}.cls-46{letter-spacing:-0.02em;}</style></defs>

    <g id="Calque_2" data-name="Calque 2">
        <g id="BASE">
            <g id="fond"><path id="PATH" class="cls-1" d="M-159.82,161.35H322a0,0,0,0,1,0,0V321.86a0,0,0,0,1,0,0H-160.25a0,0,0,0,1,0,0V161.78A.43.43,0,0,1-159.82,161.35Z" transform="translate(322.46 160.75) rotate(90)"/></g>
        <g id="ESCALIER"><rect id="a" class="cls-2" x="119.48" y="135.74" width="16.05" height="67.01" transform="translate(296.75 41.74) rotate(90)"/><rect id="a-2" data-name="a" class="cls-3" x="119.51" y="119.72" width="16.05" height="66.96" transform="matrix(0, 1, -1, 0, 280.73, 25.66)"/><rect id="a-3" data-name="a" class="cls-4" x="152.07" y="161.33" width="8.94" height="15.94" transform="translate(313.08 338.6) rotate(-180)"/><rect id="a-4" data-name="a" class="cls-5" x="147.6" y="161.33" width="4.47" height="15.94" transform="translate(299.66 338.6) rotate(-180)"/><rect id="a-5" data-name="a" class="cls-5" x="143.12" y="161.33" width="4.47" height="15.94" transform="translate(290.72 338.6) rotate(-180)"/><rect id="a-6" data-name="a" class="cls-5" x="138.65" y="161.28" width="4.47" height="15.94" transform="translate(281.78 338.49) rotate(-180)"/><rect id="a-7" data-name="a" class="cls-5" x="134.18" y="161.28" width="4.47" height="15.94" transform="translate(272.83 338.49) rotate(-180)"/><rect id="a-8" data-name="a" class="cls-5" x="129.71" y="161.28" width="4.47" height="15.94" transform="translate(263.89 338.49) rotate(-180)"/><rect id="a-9" data-name="a" class="cls-5" x="125.24" y="161.28" width="4.47" height="15.94" transform="translate(254.95 338.49) rotate(-180)"/><rect id="a-10" data-name="a" class="cls-6" x="152.07" y="145.25" width="8.94" height="15.94" transform="translate(313.08 306.45) rotate(-180)"/><rect id="a-11" data-name="a" class="cls-5" x="147.6" y="145.25" width="4.47" height="15.94" transform="translate(299.66 306.45) rotate(-180)"/><rect id="a-12" data-name="a" class="cls-5" x="143.12" y="145.25" width="4.47" height="15.94" transform="translate(290.72 306.45) rotate(-180)"/><rect id="a-13" data-name="a" class="cls-5" x="138.65" y="145.2" width="4.47" height="15.94" transform="translate(281.78 306.33) rotate(-180)"/><rect id="a-14" data-name="a" class="cls-5" x="134.18" y="145.2" width="4.47" height="15.94" transform="translate(272.83 306.33) rotate(-180)"/><rect id="a-15" data-name="a" class="cls-5" x="129.71" y="145.2" width="4.47" height="15.94" transform="translate(263.89 306.33) rotate(-180)"/><rect id="a-16" data-name="a" class="cls-5" x="125.24" y="145.2" width="4.47" height="15.94" transform="translate(254.95 306.33) rotate(-180)"/><rect id="a-17" data-name="a" class="cls-5" x="120.77" y="161.31" width="4.47" height="15.94" transform="translate(246.01 338.55) rotate(-180)"/><rect id="a-18" data-name="a" class="cls-5" x="116.3" y="161.31" width="4.47" height="15.94" transform="translate(237.06 338.55) rotate(-180)"/><rect id="a-19" data-name="a" class="cls-5" x="111.82" y="161.31" width="4.47" height="15.94" transform="translate(228.12 338.55) rotate(-180)"/><rect id="a-20" data-name="a" class="cls-7" x="107.35" y="161.31" width="4.47" height="15.88" transform="translate(219.18 338.49) rotate(-180)"/><rect id="a-21" data-name="a" class="cls-8" x="102.88" y="161.31" width="4.47" height="15.88" transform="translate(210.24 338.49) rotate(-180)"/><rect id="a-22" data-name="a" class="cls-9" x="94" y="161.31" width="8.89" height="15.88" transform="translate(196.88 338.49) rotate(-180)"/><rect id="a-23" data-name="a" class="cls-5" x="120.71" y="145.23" width="4.47" height="15.94" transform="translate(245.89 306.39) rotate(-180)"/><rect id="a-24" data-name="a" class="cls-5" x="116.24" y="145.23" width="4.47" height="15.94" transform="translate(236.95 306.39) rotate(-180)"/><rect id="a-25" data-name="a" class="cls-10" x="111.77" y="145.23" width="4.47" height="15.99" transform="translate(228.01 306.45) rotate(-180)"/><rect id="a-26" data-name="a" class="cls-11" x="107.3" y="145.17" width="4.47" height="15.99" transform="translate(219.06 306.33) rotate(-180)"/><rect id="a-27" data-name="a" class="cls-12" x="102.82" y="145.17" width="4.47" height="15.99" transform="translate(210.12 306.33) rotate(-180)"/><rect id="a-28" data-name="a" class="cls-13" x="94" y="145.17" width="8.83" height="15.99" transform="translate(196.82 306.33) rotate(-180)"/>
        </g><text class="cls-14" transform="translate(84.05 476.88) rotate(-90)">Entrée</text><text class="cls-14" transform="translate(8.58 257.94)">Entrée</text></g>

        <g id="_006" data-name="006"><rect id="a-29" data-name="a" class="cls-15" x="105.33" y="305.67" width="44.41" height="66.96" transform="translate(466.68 211.62) rotate(90)"/><text class="cls-16" transform="translate(114.06 342.6)">006</text></g>
        <g id="Courtin"><rect id="a-30" data-name="a" class="cls-15" x="106.12" y="261.77" width="42.82" height="66.96" transform="translate(422.78 167.72) rotate(90)"/><text class="cls-17" transform="translate(104.01 288.39) scale(1.17 1)">Bu<tspan class="cls-18" x="13" y="0">r</tspan><tspan x="17.14" y="0">eaux</tspan><tspan x="2.36" y="10">Cou</tspan><tspan class="cls-19" x="21.36" y="10">r</tspan><tspan x="25.8" y="10">tin</tspan><tspan x="2.36" y="20">Be</tspan><tspan class="cls-20" x="15.36" y="20">r</tspan><tspan class="cls-21" x="19.8" y="20">nier</tspan></text></g>
        <g id="_002" data-name="002"><rect id="a-31" data-name="a" class="cls-15" x="66.85" y="388.56" width="121.36" height="66.96" transform="translate(549.56 294.5) rotate(90)"/><text class="cls-16" transform="translate(114.59 422.19)">002</text></g>
        <g id="_001" data-name="001"><rect id="a-32" data-name="a" class="cls-15" x="-26.7" y="388.56" width="121.36" height="66.96" transform="matrix(0, 1, -1, 0, 456.01, 388.06)"/><text class="cls-16" transform="translate(17.11 422.9)">001</text></g>
        <g id="Emilien"><rect id="a-33" data-name="a" class="cls-15" x="103.52" y="167.81" width="48.03" height="66.96" transform="translate(328.82 73.76) rotate(90)"/><text class="cls-17" transform="translate(106.9 193.06)">Bu<tspan class="cls-22" x="13" y="0">r</tspan><tspan class="cls-23" x="17.14" y="0">eaux</tspan><tspan x="1.75" y="10">Pi</tspan><tspan class="cls-24" x="11.25" y="10">r</tspan><tspan class="cls-25" x="15.39" y="10">anda</tspan><tspan x="2.33" y="20">Emilien</tspan></text></g>
        <g id="Sergette"><rect id="a-34" data-name="a" class="cls-15" x="103.52" y="87.53" width="48.03" height="66.96" transform="translate(248.54 -6.52) rotate(90)"/><text class="cls-26" transform="translate(102.46 124.8)">Se<tspan class="cls-27" x="15.28" y="0">r</tspan><tspan class="cls-28" x="20.44" y="0">gette</tspan></text></g>
        <g id="Tournage"><rect id="a-35" data-name="a" class="cls-15" x="-26.66" y="27.66" width="121.28" height="66.96" transform="matrix(0, 1, -1, 0, 95.12, 27.16)"/><text class="cls-26" transform="translate(6.92 67.93)"><tspan class="cls-29">T</tspan><tspan x="7.2" y="0">ou</tspan><tspan class="cls-30" x="21.87" y="0">r</tspan><tspan class="cls-31" x="27.3" y="0">n</tspan><tspan class="cls-32" x="34.64" y="0">a</tspan><tspan x="42.15" y="0">ge</tspan></text></g>
        <g id="Pierre"><rect id="a-36" data-name="a" class="cls-15" x="-0.09" y="122.37" width="68.13" height="66.96" transform="translate(189.83 121.87) rotate(90)"/><text class="cls-17" transform="translate(17.17 142.99)">Bu<tspan class="cls-33" x="13" y="0">r</tspan><tspan class="cls-25" x="17.14" y="0">eau</tspan><tspan x="2.57" y="10">Pie</tspan><tspan class="cls-34" x="18.07" y="10">r</tspan><tspan class="cls-33" x="22.44" y="10">r</tspan><tspan x="26.58" y="10">e</tspan><tspan x="4.07" y="30">Local</tspan></text></g>
        <g id="Wright"><rect id="a-37" data-name="a" class="cls-15" x="103.26" y="216.09" width="48.53" height="66.96" transform="translate(377.1 122.04) rotate(90)"/><text class="cls-17" transform="translate(109.96 246.21)">Bu<tspan class="cls-33" x="13" y="0">r</tspan><tspan class="cls-25" x="17.14" y="0">eau</tspan><tspan x="1.58" y="10">Wright</tspan></text></g>
        <g id="Serge"><rect id="a-38" data-name="a" class="cls-15" x="66.14" y="2.12" width="96.31" height="93.44" transform="translate(163.13 -65.45) rotate(90)"/><text class="cls-26" transform="translate(94.39 44.43)">Salle de<tspan x="6.59" y="14">Se</tspan><tspan class="cls-27" x="21.87" y="14">r</tspan><tspan class="cls-31" x="27.03" y="14">ge</tspan></text>
        <g id="ESCALIER2"><rect id="a-39" data-name="a" class="cls-35" x="75.19" y="84.87" width="4.55" height="19.85" transform="translate(-17.33 172.26) rotate(-90)"/><rect id="a-40" data-name="a" class="cls-36" x="75.23" y="80.36" width="4.47" height="19.85" transform="translate(-12.82 167.75) rotate(-90)"/><rect id="a-41" data-name="a" class="cls-37" x="75.23" y="75.89" width="4.47" height="19.85" transform="translate(-8.35 163.28) rotate(-90)"/><rect id="a-42" data-name="a" class="cls-38" x="75.23" y="71.41" width="4.47" height="19.85" transform="translate(-3.88 158.81) rotate(-90)"/><rect id="a-43" data-name="a" class="cls-39" x="75.23" y="66.94" width="4.47" height="19.85" transform="translate(0.6 154.34) rotate(-90)"/><rect id="a-44" data-name="a" class="cls-40" x="75.23" y="62.47" width="4.47" height="19.85" transform="translate(5.07 149.86) rotate(-90)"/><rect id="a-45" data-name="a" class="cls-41" x="75.21" y="57.98" width="4.47" height="19.89" transform="translate(9.52 145.38) rotate(-90)"/><rect id="a-46" data-name="a" class="cls-42" x="75.21" y="53.51" width="4.47" height="19.89" transform="translate(13.99 140.9) rotate(-90)"/><rect id="a-47" data-name="a" class="cls-43" x="75.21" y="49.04" width="4.47" height="19.89" transform="translate(18.46 136.43) rotate(-90)"/><rect id="a-48" data-name="a" class="cls-44" x="75.25" y="44.6" width="4.47" height="19.82" transform="translate(22.97 132) rotate(-90)"/></g></g>
        <g id="WC"><rect id="a-49" data-name="a" class="cls-15" x="8.13" y="182.28" width="51.69" height="66.96" transform="translate(249.74 181.78) rotate(90)"/><text class="cls-45" transform="translate(23.12 218.05)"><tspan class="cls-46">W</tspan><tspan x="11.79" y="0">C</tspan></text></g>
        <g id="_005" data-name="005"><rect id="a-50" data-name="a" class="cls-15" x="-14.6" y="279.3" width="97.15" height="66.96" transform="matrix(0, 1, -1, 0, 346.76, 278.8)"/><text class="cls-16" transform="translate(19.64 320.08)">005</text></g>
    </g>
</svg>